<svg id="Capa_1" enable-background="new 0 0 512 512" height="512" viewBox="0 0 512 512" width="512" xmlns="http://www.w3.org/2000/svg"><g><g><circle cx="256" cy="133.224" fill="#ffccd3" r="133.224"/></g><g><path d="m180.882 133.224c0-63.598 44.567-116.779 104.171-130.038-9.353-2.08-19.073-3.186-29.053-3.186-73.578 0-133.224 59.647-133.224 133.224s59.646 133.224 133.224 133.224c9.98 0 19.7-1.106 29.053-3.186-59.604-13.259-104.171-66.44-104.171-130.038z" fill="#ffabb9"/></g><g><path d="m256 512c-23.96 0-44.59-16.912-49.289-40.407l-33.126-165.629h164.829l-33.126 165.629c-4.698 23.495-25.328 40.407-49.288 40.407z" fill="#ffd3a3"/></g><g><path d="m254.401 400.985c.534.005 1.065.02 1.599.02 23.531 0 45.917-4.975 66.186-13.9l16.228-81.141h-164.828l33.126 165.629c4.698 23.495 25.328 40.407 49.288 40.407 6.986 0 13.683-1.446 19.79-4.066z" fill="#ffbe74"/></g><g><path d="m389.924 236.176c0 73.964-59.96 133.924-133.924 133.924s-133.924-59.96-133.924-133.924v-30.905h267.847v30.905z" fill="#ffbe74"/></g><g><path d="m270.236 236.176v-30.906h-148.16v30.906c0 73.964 59.96 133.924 133.924 133.924 27.394 0 52.862-8.232 74.079-22.347-36.069-23.996-59.843-65.007-59.843-111.577z" fill="#f4a960"/></g><g><path d="m91.171 205.271c0-11.379 9.225-20.604 20.604-20.604h288.451c11.379 0 20.604 9.225 20.604 20.604 0 11.379-9.225 20.604-20.604 20.604h-288.451c-11.379-.001-20.604-9.225-20.604-20.604z" fill="#ffd3a3"/></g><g><path d="m204.491 174.365v113.32c0 11.379 9.225 20.604 20.604 20.604 11.379 0 20.604-9.225 20.604-20.604v-41.207c0-11.379 9.225-20.604 20.604-20.604 11.379 0 20.604 9.225 20.604 20.604 0 11.379 9.225 20.604 20.604 20.604 11.379 0 20.604-9.225 20.604-20.604v-72.113z" fill="#ffccd3"/></g><g><path d="m170.974 205.271c0-11.379 9.225-20.604 20.604-20.604h-79.803c-11.379 0-20.604 9.224-20.604 20.603 0 11.379 9.225 20.604 20.604 20.604h79.803c-11.379 0-20.604-9.224-20.604-20.603z" fill="#ffbe74"/></g><g><circle cx="309.476" cy="100.331" fill="#ffabb9" r="20.604"/></g><g><circle cx="256" cy="135.915" fill="#ffabb9" r="15.453"/></g></g></svg>